<svg width="23" height="21" viewBox="0 0 23 21" fill="none" xmlns="http://www.w3.org/2000/svg">
<path fill-rule="evenodd" clip-rule="evenodd" d="M10.9964 1.00568C11.2789 0.846251 11.6317 0.831757 11.9288 0.967377L19.5955 4.46738C19.9201 4.6156 20.1252 4.91858 20.1252 5.25C20.1252 5.58143 19.9201 5.88441 19.5955 6.03263L12.4585 9.29078V11.375C12.4585 11.8583 12.0295 12.25 11.5002 12.25C10.9709 12.25 10.5419 11.8583 10.5419 11.375V8.76896C10.5416 8.75676 10.5416 8.74457 10.5419 8.7324V1.75C10.5419 1.44675 10.7139 1.16511 10.9964 1.00568ZM12.4585 7.33422L17.024 5.25L12.4585 3.16578V7.33422Z" fill="black"/>
<path d="M8.52565 3.93469C8.76026 4.36787 8.56583 4.89268 8.0914 5.10688C6.77472 5.70135 5.6728 6.62865 4.91672 7.77846C4.16064 8.92827 3.78224 10.2522 3.82653 11.5927C3.87082 12.9332 4.33594 14.2339 5.16655 15.34C5.99717 16.4461 7.15831 17.3111 8.51184 17.832C9.86536 18.3529 11.3543 18.5079 12.8015 18.2784C14.2487 18.0489 15.5932 17.4447 16.6751 16.5376C17.7571 15.6305 18.5308 14.4588 18.9043 13.1617C19.2779 11.8647 19.2355 10.497 18.7821 9.22133C18.6188 8.76167 18.8945 8.26814 19.3979 8.119C19.9014 7.96986 20.4419 8.22159 20.6052 8.68125C21.1719 10.2758 21.2249 11.9855 20.758 13.6068C20.2911 15.2281 19.3239 16.6928 17.9715 17.8266C16.6191 18.9605 14.9384 19.7158 13.1294 20.0026C11.3204 20.2894 9.45927 20.0958 7.76737 19.4446C6.07546 18.7935 4.62403 17.7123 3.58576 16.3296C2.5475 14.947 1.96609 13.3211 1.91073 11.6455C1.85537 9.96983 2.32837 8.31493 3.27347 6.87767C4.21857 5.4404 5.59598 4.28127 7.24182 3.53819C7.71626 3.32399 8.29105 3.5015 8.52565 3.93469Z" fill="black"/>
<path d="M8.43282 9.27561C8.75072 8.88924 8.66539 8.34073 8.24222 8.05047C7.81906 7.76021 7.2183 7.83813 6.9004 8.2245C6.32414 8.92487 5.94898 9.74577 5.8091 10.6124C5.66922 11.479 5.76907 12.3638 6.09954 13.1862C6.43002 14.0086 6.98062 14.7424 7.70118 15.3208C8.42174 15.8992 9.28935 16.3037 10.225 16.4976C11.1606 16.6915 12.1345 16.6686 13.0579 16.4309C13.9813 16.1932 14.8249 15.7483 15.5119 15.1367C16.1988 14.5252 16.7072 13.7664 16.9908 12.9296C17.2743 12.0927 17.3241 11.2044 17.1354 10.3455C17.0313 9.87168 16.5263 9.56461 16.0073 9.65964C15.4884 9.75466 15.1521 10.2158 15.2562 10.6896C15.3819 11.2622 15.3488 11.8544 15.1597 12.4123C14.9707 12.9702 14.6317 13.4761 14.1738 13.8838C13.7158 14.2915 13.1534 14.5881 12.5378 14.7465C11.9222 14.905 11.273 14.9203 10.6492 14.791C10.0255 14.6618 9.44705 14.3921 8.96667 14.0065C8.4863 13.6209 8.11923 13.1317 7.89892 12.5834C7.6786 12.0352 7.61204 11.4453 7.70529 10.8675C7.79854 10.2898 8.04865 9.74252 8.43282 9.27561Z" fill="black"/>
</svg>
